<svg xmlns="http://www.w3.org/2000/svg" width="454" height="376" viewBox="0 0 454 376" fill="none">
<path fill-rule="evenodd" clip-rule="evenodd" d="M255.114 19.8877C258.471 10.1475 251.235 0 240.932 0H169.131C163.098 0 157.652 3.61448 155.309 9.17388L142.914 38.5795C137.602 51.1837 119.572 50.6825 114.968 37.8026L105.76 12.0441C103.626 6.07634 97.9726 2.09326 91.635 2.09326H15.0145C4.43273 2.09326 -2.82237 12.7551 1.06129 22.5984L136.622 366.184C138.882 371.914 144.415 375.679 150.575 375.679H242.074C248.208 375.679 253.725 371.944 256.002 366.248L393.378 22.6621C397.317 12.8094 390.061 2.09326 379.45 2.09326H304.254C297.916 2.09326 292.263 6.07633 290.129 12.0441L240.387 151.195C221.965 202.499 208.859 245.931 201.07 281.493C200.295 285.032 195.007 285.01 194.325 281.451C192.411 271.774 188.657 257.029 183.066 237.215C182.231 234.258 182.313 231.113 183.314 228.208L255.114 19.8877Z" fill="white"/>
<ellipse cx="400.043" cy="320.432" rx="53.5621" ry="55.2469" fill="#009ED6"/>
</svg>